<svg width="512" height="512" viewBox="0 0 512 512" fill="none" xmlns="http://www.w3.org/2000/svg">
<g clip-path="url(#clip0_2_3)">
<path d="M352 256C352 278.2 350.8 299.6 348.7 320H163.3C161.1 299.6 160 278.2 160 256C160 233.8 161.2 212.4 163.3 192H348.7C350.9 212.4 352 233.8 352 256ZM380.8 192H503.9C509.2 212.5 512 233.9 512 256C512 278.1 509.2 299.5 503.9 320H380.8C382.9 299.4 384 278 384 256C384 234 382.9 212.6 380.8 192ZM493.4 160H376.7C366.7 96.1 346.9 42.6 321.4 8.4C399.7 29.1 463.4 85.9 493.3 160H493.4ZM344.3 160H167.7C173.8 123.6 183.2 91.4 194.7 65.3C205.2 41.7 216.9 24.6 228.2 13.8C239.4 3.2 248.7 0 256 0C263.3 0 272.6 3.2 283.8 13.8C295.1 24.6 306.8 41.7 317.3 65.3C328.9 91.3 338.3 123.5 344.3 160ZM135.3 160H18.6C48.6 85.9 112.2 29.1 190.6 8.4C165.1 42.6 145.3 96.1 135.3 160ZM8.1 192H131.2C129.1 212.6 128 234 128 256C128 278 129.1 299.4 131.2 320H8.1C2.8 299.5 0 278.1 0 256C0 233.9 2.8 212.5 8.1 192ZM194.7 446.6C183.1 420.6 173.8 388.4 167.7 352H344.3C338.2 388.4 328.8 420.6 317.3 446.6C306.8 470.2 295.1 487.3 283.8 498.1C272.6 508.8 263.3 512 256 512C248.7 512 239.4 508.8 228.2 498.2C216.9 487.4 205.2 470.3 194.7 446.7V446.6ZM135.3 352C145.3 415.9 165.1 469.4 190.6 503.6C112.2 482.9 48.6 426.1 18.6 352H135.3ZM493.4 352C463.4 426.1 399.8 482.9 321.5 503.6C347 469.4 366.7 415.9 376.8 352H493.4Z" fill="white"/>
</g>
<defs>
<clipPath id="clip0_2_3">
<rect width="512" height="512" fill="white"/>
</clipPath>
</defs>
</svg>
